<svg width="86" height="64" viewBox="0 0 86 64" fill="none" xmlns="http://www.w3.org/2000/svg">
<g clip-path="url(#clip0_3_18)">
<path fill-rule="evenodd" clip-rule="evenodd" d="M84.0453 1.50402C85.0609 2.48852 85.6438 3.83612 85.6658 5.25038C85.6878 6.66465 85.1471 8.02973 84.1627 9.04535L34.0027 60.8C33.3066 61.5177 32.4735 62.0883 31.5528 62.478C30.6321 62.8677 29.6424 63.0685 28.6427 63.0685C27.6429 63.0685 26.6533 62.8677 25.7325 62.478C24.8118 62.0883 23.9787 61.5177 23.2827 60.8L1.83732 38.6774C1.34352 38.1758 0.953885 37.5814 0.690882 36.9285C0.427878 36.2757 0.296706 35.5772 0.30493 34.8734C0.313154 34.1696 0.460612 33.4743 0.738799 32.8278C1.01699 32.1812 1.4204 31.5961 1.92579 31.1062C2.43117 30.6163 3.02853 30.2313 3.68343 29.9734C4.33832 29.7154 5.0378 29.5897 5.74152 29.6034C6.44525 29.617 7.13931 29.7699 7.78369 30.0531C8.42806 30.3363 9.01002 30.7442 9.49599 31.2534L28.6427 51.0027L76.504 1.62135C77.4885 0.605787 78.8361 0.0228944 80.2504 0.000890384C81.6646 -0.0211137 83.0297 0.519574 84.0453 1.50402Z" fill="white"/>
</g>
<defs>
<clipPath id="clip0_3_18">
<rect width="86" height="64" fill="white"/>
</clipPath>
</defs>
</svg>
